<svg xmlns="http://www.w3.org/2000/svg" height="20" viewBox="0 -960 960 960" width="20"><path d="M798-700H162v440h348q20.3 0 34.65 14.289 14.35 14.29 14.35 34.5Q559-191 544.65-176.5T510-162H162q-39.725 0-68.862-29.137Q64-220.275 64-260v-440q0-39.725 29.138-68.862Q122.275-798 162-798h636q40.425 0 69.213 29.138Q896-739.725 896-700v242q0 20.3-14.289 34.65-14.29 14.35-34.5 14.35Q827-409 812.5-423.35T798-458v-242Zm-636 0v440-440Zm318 183 318-183v113L505-424q-11.562 7-24.281 7T456-424L162-579v-121l318 183Zm283 355h-83.072q-20.269 0-34.599-14.289Q631-190.579 631-210.789 631-231 645.329-245.5q14.33-14.5 34.599-14.5H763l-10.25-10.25Q738-284.818 738-304.409t15-35.243Q768-354 788-353.5t33.82 14.343l93.77 93.976q7.41 7.522 11.41 16.297 4 8.776 4 18.004 0 9.229-4 18.005-4 8.775-11 15.875l-94 94q-15 15-34.133 14.5Q768.733-69 754-84q-15-15-15.5-34.5T753-153l10-9Z"/></svg>