<?xml version="1.0" encoding="UTF-8" standalone="no"?>
<svg
   viewBox="0 0 64 64"
   width="48px"
   height="48px"
   version="1.1"
   id="svg1"
   sodipodi:docname="facebook.svg"
   inkscape:version="1.3.2 (091e20e, 2023-11-25)"
   xmlns:inkscape="http://www.inkscape.org/namespaces/inkscape"
   xmlns:sodipodi="http://sodipodi.sourceforge.net/DTD/sodipodi-0.dtd"
   xmlns="http://www.w3.org/2000/svg"
   xmlns:svg="http://www.w3.org/2000/svg">
  <defs
     id="defs1" />
  <sodipodi:namedview
     id="namedview1"
     pagecolor="#505050"
     bordercolor="#ffffff"
     borderopacity="1"
     inkscape:showpageshadow="0"
     inkscape:pageopacity="0"
     inkscape:pagecheckerboard="1"
     inkscape:deskcolor="#505050"
     inkscape:zoom="4.9166667"
     inkscape:cx="24"
     inkscape:cy="24"
     inkscape:window-width="749"
     inkscape:window-height="748"
     inkscape:window-x="0"
     inkscape:window-y="18"
     inkscape:window-maximized="1"
     inkscape:current-layer="svg1" />
  <path
     d="M40.227,12C51.146,12,52,12.854,52,23.773v16.453C52,51.145,51.146,52,40.227,52h-2.089V37.438h5.134l0.807-5.77h-5.941 c0,0-0.009-3.378,0-4.221c0.017-1.649,1.394-2.483,2.577-2.471c1.183,0.012,3.634,0.004,3.634,0.004v-5.317 c0,0-2.123-0.275-4.349-0.298c-1.871-0.019-3.937,0.487-5.604,2.167c-1.696,1.709-1.963,4.254-1.996,7.364 c-0.009,0.9,0,2.772,0,2.772h-5.024v5.77H32.4V52h-8.626C12.854,52,12,51.145,12,40.227V23.773C12,12.854,12.854,12,23.773,12 H40.227z"
     id="path1"
     style="fill:#ffffff" />
</svg>
