<?xml version="1.0" encoding="UTF-8" standalone="no"?>
<!-- Created with Inkscape (http://www.inkscape.org/) -->

<svg
   width="393.07312"
   height="456.04907"
   viewBox="0 0 393.07312 456.04907"
   version="1.1"
   id="svg1"
   xml:space="preserve"
   inkscape:version="1.3.2 (091e20e, 2023-11-25)"
   sodipodi:docname="logo.svg"
   xmlns:inkscape="http://www.inkscape.org/namespaces/inkscape"
   xmlns:sodipodi="http://sodipodi.sourceforge.net/DTD/sodipodi-0.dtd"
   xmlns="http://www.w3.org/2000/svg"
   xmlns:svg="http://www.w3.org/2000/svg"><sodipodi:namedview
     id="namedview1"
     pagecolor="#ffffff"
     bordercolor="#000000"
     borderopacity="1"
     inkscape:showpageshadow="false"
     inkscape:pageopacity="0.0"
     inkscape:pagecheckerboard="true"
     inkscape:deskcolor="#000000"
     inkscape:document-units="px"
     inkscape:zoom="1.0703125"
     inkscape:cx="159.76642"
     inkscape:cy="263.47445"
     inkscape:window-width="1364"
     inkscape:window-height="748"
     inkscape:window-x="0"
     inkscape:window-y="18"
     inkscape:window-maximized="1"
     inkscape:current-layer="layer1"
     showborder="false"
     borderlayer="false" /><defs
     id="defs1" /><g
     inkscape:label="Layer 1"
     inkscape:groupmode="layer"
     id="layer1"
     transform="translate(-1002.6473,-650.68274)"
     style="display:inline"><path
       d="m 1172.268,915.43185 c 20.0475,-10.05153 22.4307,-19.94574 8.3941,-34.84954 -24.6494,-26.17233 -15.4909,-43.05394 22.3642,-41.22304 32.2629,1.56058 37.6222,17.10521 14.26,41.36071 -14.3884,14.93852 -12.4015,23.41734 7.7603,33.11474 11.8508,5.69993 17.2862,5.32137 27.0772,-1.88647 18.4851,-13.60788 19.7221,-35.95777 3.3229,-60.03851 -7.5908,-11.14657 -6.1084,-19.21766 3.5296,-19.21766 5.7875,0 15.5244,11.69025 21.0508,25.27397 2.1429,5.26713 2.1429,5.26713 3.9968,0.31112 42.0868,-112.51055 -20.3952,-171.25974 -83.835,-173.05368 -63.472,-1.79487 -127.9028,53.42319 -89.5236,168.85268 4.214,12.67401 4.214,12.67401 5.87,7.9713 3.2831,-9.3224 16.8029,-30.08189 20.5203,-31.50836 13.4952,-5.17855 16.179,6.29154 5.2079,22.25829 -14.5028,21.10677 -14.8523,41.05858 -0.9624,54.9484 10.6399,10.63997 20.2956,13.0366 30.9669,7.68605 z m -24.2005,-85.83254 c 59.3468,-143.69301 59.3468,-143.69301 0,0 z"
       style="fill:#ffff8c;fill-opacity:1;stroke-width:0.916851"
       id="path1-4"
       sodipodi:nodetypes="sssssssssssssssssscc"
       inkscape:export-filename="../../../../../Programacion WEB/TalleNo1/PrototipoHTML/assets/svg/logo.svg"
       inkscape:export-xdpi="96"
       inkscape:export-ydpi="96" /><g
       id="g9-5-7-6"
       transform="matrix(1.4039498,0,0,1.4039498,940.46298,523.81383)"
       style="fill:#000000;stroke:#000000"
       inkscape:export-filename="../../../../../Programacion WEB/TalleNo1/PrototipoHTML/assets/svg/textlogo.svg"
       inkscape:export-xdpi="96"
       inkscape:export-ydpi="96"><path
         style="font-size:66.6667px;font-family:'Tovari Sans';-inkscape-font-specification:'Tovari Sans';text-align:center;letter-spacing:2px;text-anchor:middle;fill:#a573ad;stroke-width:2"
         d="m 194.71499,356.77485 q 3.66666,1.2 5.73333,4.93334 2.13334,3.73333 2.2,7.86667 0,1.13333 -0.13333,2.2 -0.53333,4.33333 -3.2,7.93334 -2.66667,3.53333 -6.66667,4.86667 -4.80001,1.6 -9.46667,-0.33334 0,0.8 -0.33334,8.73334 0,0.93333 -0.2,3.8 -0.13333,2.86667 -0.13333,4.4 0,0.0667 -0.0667,0.0667 -1.73333,0.93333 -3.8,0.93333 -2.06667,0.0667 -3.73334,-0.93333 -0.0667,-0.0667 -0.0667,-0.13333 0.46666,-6.33334 0.46666,-7.73334 0.0667,-3.46667 0.0667,-3.46667 0.0667,-0.6 0.13334,-1.73333 0.0667,-1.13334 0.0667,-1.66667 0.13334,-1.33333 0.13334,-3.73334 0.0667,-2.4 0.0667,-3.2 0.13334,-2.06666 0,-6.66667 0,-3.2 -0.13333,-4.53333 -0.33334,-5.06667 -0.6,-10.00001 0,-0.53333 0.13333,-0.66667 0.0667,-0.0667 0.6,-0.33333 0.73334,-0.33333 1.8,-0.6 2.26667,-0.53333 5.26667,-0.53333 0.0667,0 0.0667,0.0667 0,1 0.0667,2.46667 1.33333,-0.93333 2.86666,-1.46667 4.80001,-1.86666 8.86668,-0.53333 z m 0,14.26667 q 0.33333,-1.06666 0.2,-2.4 -0.0667,-1.4 -0.4,-2.6 -0.26667,-1.26667 -1.20001,-2.13333 -0.86666,-0.86667 -2.26666,-0.93334 -1.93334,-0.0667 -3.73334,1.33334 -1.73333,1.4 -2.8,3.33333 -0.93333,1.8 -1,4.13334 -0.0667,2.33333 0.73333,4.26667 0.66667,1.66667 2.2,2 1.80001,0.4 3.60001,-0.0667 1.6,-0.46666 2.86666,-2.4 1.26667,-2.06667 1.80001,-4.53334 z"
         id="text2-51-3-0"
         transform="rotate(3.88578)"
         aria-label="&#10;p" /><path
         style="font-size:66.6667px;font-family:'Tovari Sans';-inkscape-font-specification:'Tovari Sans';text-align:center;letter-spacing:2px;text-anchor:middle;fill:#ffff8c;stroke-width:2"
         d="m 84.480145,368.7945 q 3.666668,1.2 5.733336,4.93334 2.133335,3.73334 2.200001,7.86667 0,1.13333 -0.133333,2.2 -0.533334,4.33334 -3.200002,7.93334 -2.666668,3.53333 -6.66667,4.86667 -4.800002,1.6 -9.466672,-0.33333 0,0.8 -0.333333,8.73333 0,0.93334 -0.2,3.80001 -0.133334,2.86666 -0.133334,4.4 0,0.0667 -0.06667,0.0667 -1.733335,0.93334 -3.800002,0.93334 -2.066668,0.0667 -3.733336,-0.93334 -0.06667,-0.0667 -0.06667,-0.13333 0.466667,-6.33334 0.466667,-7.73334 0.06667,-3.46666 0.06667,-3.46666 0.06667,-0.60001 0.133334,-1.73334 0.06667,-1.13333 0.06667,-1.66667 0.133334,-1.33333 0.133334,-3.73333 0.06667,-2.4 0.06667,-3.2 0.133334,-2.06667 0,-6.66667 0,-3.20001 -0.133333,-4.53334 -0.333333,-5.06667 -0.6,-10.00001 0,-0.53333 0.133333,-0.66666 0.06667,-0.0667 0.6,-0.33334 0.733334,-0.33333 1.800001,-0.6 2.266668,-0.53333 5.26667,-0.53333 0.06667,0 0.06667,0.0667 0,1 0.06667,2.46667 1.333334,-0.93334 2.866668,-1.46667 4.800003,-1.86667 8.866672,-0.53334 z m 0,14.26668 q 0.333333,-1.06667 0.2,-2.4 -0.06667,-1.4 -0.4,-2.6 -0.266667,-1.26667 -1.200001,-2.13334 -0.866667,-0.86667 -2.266668,-0.93333 -1.933334,-0.0667 -3.733335,1.33333 -1.733334,1.4 -2.800002,3.33334 -0.933333,1.8 -1,4.13333 -0.06667,2.33334 0.733334,4.26667 0.666667,1.66667 2.200001,2 1.800001,0.4 3.600002,-0.0667 1.600001,-0.46667 2.866668,-2.40001 1.266667,-2.06666 1.800001,-4.53333 z"
         id="text2-0-5-2-4"
         aria-label="&#10;p" /><path
         style="font-size:66.6667px;font-family:'Tovari Sans';-inkscape-font-specification:'Tovari Sans';text-align:center;letter-spacing:2px;text-anchor:middle;fill:#a573ad;stroke-width:2"
         d="m 140.10606,398.37083 q 0.0667,0.0667 0.0667,0.13333 -0.6,1.66667 -2.53334,3.46667 -1.53333,1.46667 -3.13333,2.33334 -0.0667,0.0667 -0.0667,0 -1.2,-1.4 -3.33334,-1.73334 -2.06666,-0.33333 -3.73333,0.53334 -2.33334,1.06666 -3.2,3.73333 -0.33334,1.06667 -0.66667,4 -0.26667,2.73334 -0.26667,6.00001 0.0667,3.73333 0.46667,6.2 0,0.13333 -0.0667,0.13333 -0.93333,-0.0667 -8.8,0 -0.13333,0 -0.13333,-0.13333 0,-0.13333 -0.2,-5.46667 -0.26667,-6.53334 0.26666,-13.13334 0.2,-2.13333 0.33334,-4.4 0.2,-3.2 0.2,-3.53334 0,-0.13333 0.13333,-0.13333 2.4,-0.93333 3.26667,-1.13333 1.73333,-0.40001 4.26667,-0.40001 0.0667,0 0.0667,0.0667 0.0667,2.13334 0.0667,3.33334 0,0.46666 0,1.26666 1.13333,-1.93333 2.73334,-3 2.53333,-1.73333 6.86667,-1.66667 2.13333,0 4.13333,1.00001 2,0.93333 3.26667,2.53333 z"
         id="text2-12-49-8-4"
         transform="rotate(-9.4184695)"
         aria-label="&#10;r" /><path
         style="font-size:66.6667px;font-family:'Tovari Sans';-inkscape-font-specification:'Tovari Sans';text-align:center;letter-spacing:2px;text-anchor:middle;fill:#a573ad;stroke-width:2"
         d="m 317.6586,328.07877 v 0.0667 q 0,0.0667 0,0.0667 -1.13333,1.13333 -2.2,1.93333 -3.8,2.86667 -9.4,2.80001 -3.26667,0 -6.13334,-0.73334 -2.6,-0.6 -4.06667,-1.73333 -2.13333,-1.6 -3.53333,-3.93334 -1.4,-2.33333 -1.73334,-4.93333 -0.73333,-6.20001 2.26667,-11.06668 1.4,-2.26666 2.86667,-3.46666 1.53333,-1.33334 3.6,-2.13334 2.46667,-1 5.33334,-1 2.93333,-0.0667 4.53333,0.53333 3.8,1.33334 6.46667,5.40001 1.46667,2.26666 1.86667,5.06667 0.46667,2.73333 -0.26667,5.26667 -0.26666,0.73333 -0.73333,0.8 -0.4,0.0667 -2,0.13333 -0.66667,0 -1.6,0.0667 -0.86667,0 -1.8,0.0667 -0.86667,0 -1.53334,0 -0.8,0 -4.86667,0.0667 -4,0 -6.13333,0.0667 0.46666,2.53333 3.13333,3.73333 1.93334,0.93334 4.4,0.53334 1.46667,-0.2 2.73334,-0.73334 0.6,-0.26667 1.13333,-0.6 0.33334,-0.26667 0.6,-0.2 1.33334,0.4 3.66667,1.6 2.4,1.33334 3.4,2.33334 z m -16.33334,-16.13335 q -1.73333,1.60001 -2.66667,4.00001 0.6,0 2.33334,0 1.73333,-0.0667 2.66667,-0.0667 0.4,0 1.2,0.0667 0.8,0.0667 0.93333,0.0667 1,0.0667 2.86667,0 1.33333,-0.0667 1.53333,-0.0667 0.46667,0 0.53334,0 0,-0.0667 0.0667,-0.46667 0,-0.93333 -0.73333,-2.26667 -1.4,-2.46667 -3.6,-2.86667 -2.8,-0.46666 -5.13334,1.6 z"
         id="text2-12-4-87-5-1"
         transform="rotate(14.848493)"
         aria-label="&#10;e" /><path
         style="font-size:66.6667px;font-family:'Tovari Sans';-inkscape-font-specification:'Tovari Sans';text-align:center;letter-spacing:2px;text-anchor:middle;fill:#ffff8c;stroke-width:2"
         d="m -52.789403,401.65788 v 0.0667 q 0,0.0667 0,0.0667 -1.133334,1.13333 -2.200001,1.93333 -3.800002,2.86667 -9.400005,2.8 -3.266668,0 -6.133336,-0.73333 -2.600002,-0.6 -4.066669,-1.73334 -2.133335,-1.6 -3.533336,-3.93333 -1.4,-2.33334 -1.733334,-4.93334 -0.733333,-6.2 2.266668,-11.06667 1.400001,-2.26667 2.866668,-3.46667 1.533334,-1.33333 3.600002,-2.13333 2.466668,-1 5.333336,-1 2.933335,-0.0667 4.533336,0.53333 3.800002,1.33333 6.46667,5.4 1.466668,2.26667 1.866668,5.06667 0.466667,2.73334 -0.266667,5.26667 -0.266667,0.73334 -0.733334,0.8 -0.4,0.0667 -2.000001,0.13334 -0.666667,0 -1.600001,0.0667 -0.866667,0 -1.8,0.0667 -0.866668,0 -1.533335,0 -0.8,0 -4.866669,0.0667 -4.000002,0 -6.133336,0.0667 0.466666,2.53334 3.133335,3.73334 1.933334,0.93333 4.400002,0.53333 1.466667,-0.2 2.733335,-0.73333 0.6,-0.26667 1.133334,-0.6 0.333333,-0.26667 0.6,-0.2 1.333334,0.4 3.666669,1.6 2.400001,1.33333 3.400001,2.33333 z m -16.333342,-16.13334 q -1.733334,1.6 -2.666668,4 0.600001,0 2.333335,0 1.733334,-0.0667 2.666668,-0.0667 0.4,0 1.200001,0.0667 0.8,0.0667 0.933333,0.0667 1.000001,0.0667 2.866669,0 1.333334,-0.0667 1.533334,-0.0667 0.466667,0 0.533333,0 0,-0.0667 0.06667,-0.46666 0,-0.93334 -0.733334,-2.26667 -1.4,-2.46667 -3.600002,-2.86667 -2.800001,-0.46667 -5.133336,1.6 z"
         id="text2-12-4-8-7-7-8"
         transform="rotate(-25.226575)"
         aria-label="&#10;e" /><path
         style="font-size:66.6667px;font-family:'Tovari Sans';-inkscape-font-specification:'Tovari Sans';text-align:center;letter-spacing:2px;text-anchor:middle;fill:#a573ad;stroke-width:2"
         d="m 211.00721,420.2173 q 0.0667,0.0667 0,0.13333 -1.73333,2.46667 -4.86667,3.33334 -3.06666,0.86666 -6.53333,0.6 -2.93334,-0.2 -4.60001,-1 -1.26666,-0.66667 -2.13333,-2.13334 -0.93333,-1.66667 -1.06667,-4.2 -0.13333,-2.53334 0.0667,-4.33334 0,-1.13333 0.0667,-2.86666 0.13333,-1.73334 0.2,-3.20001 0.0667,-1.53333 0.0667,-2.86666 -0.8,0 -2.33333,-0.0667 -1.46667,-0.13333 -2,-0.13333 -0.13334,-0.0667 -0.13334,-0.13334 l 0.46667,-6.33334 v -0.0667 q 0,-0.0667 0.0667,-0.0667 0.26666,0 0.53333,0 0.33333,0 0.66667,0 0.4,0 0.6,0 0.33333,0 0.86667,0 0.6,0 0.93333,0 -0.0667,-0.66667 -0.0667,-1.2 0.0667,-0.66667 0.0667,-1.73333 0,-1.06667 0,-2 0.0667,-0.93334 0.0667,-1.66667 0,-0.13334 0.0667,-0.13334 2.06667,-0.26666 4.40001,-0.2 0.33333,0 0.73333,0.0667 0.46667,0.0667 0.86667,0.13333 0.46666,0 0.8,0 0.13333,0 0.13333,0.13334 0,0.33333 0.0667,1.8 0.0667,1.4 0.0667,2.13333 -0.0667,2.4 -0.0667,2.66667 7.2,0 8.2,0 0.2,0 0.0667,0.13333 -0.73334,1.26667 -1.4,3.20001 -0.66667,1.93333 -0.8,3.46667 0,0.13333 -0.13334,0.0667 -0.53333,0 -1.33333,-0.0667 -0.73333,-0.0667 -1.33334,-0.0667 -0.6,-0.0667 -1.33333,-0.0667 -0.73333,-0.0667 -1.33333,0 -0.0667,0 -0.26667,0 -0.13333,0 -0.2,0 0,0.73334 0,1.26667 -0.2,3.93333 -0.2,6.13334 0,2.86666 0,3.13333 0.13333,1.66667 1.26667,2.4 2.6,1.66667 6.2,-0.93333 0.0667,-0.0667 0.13333,0 1.6,2.66667 4.46667,4.66667 z"
         id="text2-12-4-6-5-4-3"
         transform="rotate(-5.9127177)"
         aria-label="&#10;t" /><path
         style="font-size:66.6667px;font-family:'Tovari Sans';-inkscape-font-specification:'Tovari Sans';text-align:center;letter-spacing:2px;text-anchor:middle;fill:#ffff8c;stroke-width:2"
         d="m 208.65898,368.75129 q 0.0667,0.0667 0,0.13334 -1.73334,2.46667 -4.86667,3.33333 -3.06667,0.86667 -6.53334,0.6 -2.93333,-0.2 -4.6,-1 -1.26667,-0.66666 -2.13334,-2.13333 -0.93333,-1.66667 -1.06666,-4.2 -0.13334,-2.53334 0.0667,-4.33334 0,-1.13333 0.0667,-2.86667 0.13333,-1.73333 0.2,-3.2 0.0667,-1.53333 0.0667,-2.86667 -0.8,0 -2.33334,-0.0667 -1.46667,-0.13334 -2,-0.13334 -0.13333,-0.0667 -0.13333,-0.13333 l 0.46666,-6.33334 v -0.0667 q 0,-0.0667 0.0667,-0.0667 0.26667,0 0.53333,0 0.33334,0 0.66667,0 0.4,0 0.6,0 0.33334,0 0.86667,0 0.6,0 0.93333,0 -0.0667,-0.66667 -0.0667,-1.2 0.0667,-0.66667 0.0667,-1.73334 0,-1.06666 0,-2 0.0667,-0.93333 0.0667,-1.66667 0,-0.13333 0.0667,-0.13333 2.06666,-0.26667 4.4,-0.2 0.33333,0 0.73333,0.0667 0.46667,0.0667 0.86667,0.13333 0.46667,0 0.8,0 0.13333,0 0.13333,0.13333 0,0.33334 0.0667,1.80001 0.0667,1.4 0.0667,2.13333 -0.0667,2.4 -0.0667,2.66667 7.2,0 8.2,0 0.2,0 0.0667,0.13333 -0.73333,1.26667 -1.4,3.2 -0.66667,1.93334 -0.8,3.46667 0,0.13334 -0.13333,0.0667 -0.53334,0 -1.33334,-0.0667 -0.73333,-0.0667 -1.33333,-0.0667 -0.6,-0.0667 -1.33334,-0.0667 -0.73333,-0.0667 -1.33333,0 -0.0667,0 -0.26667,0 -0.13333,0 -0.2,0 0,0.73333 0,1.26667 -0.2,3.93333 -0.2,6.13333 0,2.86667 0,3.13334 0.13334,1.66666 1.26667,2.4 2.6,1.66667 6.2,-0.93334 0.0667,-0.0667 0.13334,0 1.6,2.66667 4.46667,4.66667 z"
         id="text2-12-4-6-2-2-8-1"
         transform="rotate(9.9978389)"
         aria-label="&#10;t" /><path
         style="font-size:66.6667px;font-family:'Tovari Sans';-inkscape-font-specification:'Tovari Sans';text-align:center;letter-spacing:2px;text-anchor:middle;fill:#a573ad;fill-opacity:1;stroke-width:2"
         d="m 177.71407,415.5334 c 0.19717,-0.48805 5.34177,0.074 7.29457,0.20231 0,2.93333 -0.26667,5.93334 -0.4,8.86667 -0.0667,2.8 -0.4,6.06667 1.06667,8.60001 0.46667,0.8 1.26667,1.66666 2.13333,2.06666 1.4,0.66667 3,0.93334 4.53334,1.06667 4,0.26667 8.93334,-0.46667 11.46667,-3.93333 0,-0.0667 0,-0.13334 -0.0667,-0.13334 l 9e-5,5e-5 v -0.0667 c -1.73333,-1.20001 -3.33333,-2.73334 -4.4,-4.60001 -0.0667,-0.0667 -0.13333,-0.0667 -0.13333,-0.0667 -1.8,1.26666 -4.13334,2.33333 -6.2,1 -0.86667,-0.53334 -1.20001,-1.46667 -1.26667,-2.46667 -0.0667,-1 0,-2.06667 0,-3.13334 0,-2.06666 0.0667,-4.06667 0.13333,-6.06667 0.0667,-0.46666 0.0667,-0.86666 0.0667,-1.33333 h 0.46667 c 1.73333,-0.0667 3.53333,0.2 5.33333,0.26667 0.0667,0 0.0667,-0.0667 0.13333,-0.13334 0.0667,-1.13333 0.40001,-2.33333 0.73334,-3.46667 0.4,-1.06666 0.86667,-2.2 1.46667,-3.13333 0.0667,-0.0667 0,-0.2 -0.0667,-0.2 -2.8,0 -5.53334,0.0667 -8.26667,0.0667 0,-0.93334 0.0667,-1.8 0.0667,-2.66667 0.0667,-1.33334 -0.0667,-2.66667 -0.0667,-4 l -0.13334,-0.13334 c -0.8,0 -1.6,-0.13333 -2.46666,-0.13333 -1.4,-0.0667 -2.86667,-0.0667 -4.33334,0.2 -0.0667,0 -0.0667,0 -0.0667,0.0667 0,1.8 -0.13333,3.6 -0.13333,5.4 v 1.26667 c -1.60993,-0.0604 -4.49485,-0.0972 -4.99639,-0.22766"
         id="text2-12-4-6-0-6-5-6"
         transform="rotate(-9.4335648)"
         aria-label="&#10;t"
         sodipodi:nodetypes="cccccccscccccsscccccccsccccccsscc" /><path
         style="font-size:66.6667px;font-family:'Tovari Sans';-inkscape-font-specification:'Tovari Sans';text-align:center;letter-spacing:2px;text-anchor:middle;fill:#a573ad;fill-opacity:1;stroke:#000000;stroke-width:2"
         d="m 292.99371,382.07663 c 0.2468,-1.78301 0.42752,-3.57515 0.67432,-5.35816 0.44789,-3.23581 0.95272,-6.39645 1.40061,-9.63227 l 0.38391,-2.77355 c 0.009,-0.0661 -0.0478,-0.14122 -0.1138,-0.15036 -2.24526,-0.31078 -5.18951,-0.92022 -7.21931,0.61598 l -0.009,0.0661 c -0.46617,3.36789 -1.00755,6.79268 -1.93595,10.09659 -0.52923,1.87851 -1.19967,3.80477 -2.29581,5.40292 -0.93664,1.4183 -2.30813,2.57451 -3.97528,2.94947 -1.38472,0.27944 -3.11083,0.10782 -4.26499,-0.79225 -2.19452,-1.64981 -1.70093,-5.21581 -1.37187,-7.59315 0.2173,-2.0563 0.5098,-4.16948 0.79316,-6.21663 0.23974,-1.24556 0.47027,-2.42509 0.57794,-3.68894 0.15539,-1.12262 0.24472,-2.2544 0.40011,-3.37703 0.009,-0.0661 -0.0478,-0.14122 -0.1138,-0.15036 -2.45252,-0.27213 -5.03505,-0.0912 -7.48345,0.57942 l -0.009,0.0661 c -0.322,1.83989 -0.5688,3.6229 -0.82474,5.47193 -0.21024,1.51886 -0.56168,3.08547 -0.78106,4.67036 -0.45703,3.30185 -0.6113,6.84752 0.0726,10.17269 0.56804,2.70341 1.95594,5.3184 4.30082,6.85442 2.03297,1.35824 4.92946,1.82646 7.34131,1.41997 2.62823,-0.51113 4.57166,-2.3958 6.01421,-4.55171 -0.20109,1.45282 -0.41133,2.97167 -0.75363,4.47224 -0.39514,2.3682 -1.20825,9.66883 -2.8124,11.53315 -2.07344,2.3378 -5.70137,2.77786 -8.4699,1.38512 -1.62555,-0.89803 -2.87728,-2.55195 -3.80796,-4.09412 0.009,-0.0661 -0.0569,-0.0752 -0.13207,-0.0183 -1.05454,0.32516 -2.15478,0.98049 -3.11382,1.58807 -0.96816,0.67362 -2.01151,1.40413 -2.67692,2.32156 -0.0843,0.12293 -0.30985,0.29363 -0.32813,0.4257 -0.0274,0.19811 0.12498,0.55571 0.23878,0.70608 0.25706,0.57399 0.51412,1.14799 0.84635,1.6651 0.65534,1.10024 1.52707,2.09583 2.49225,2.90246 3.54885,3.0487 8.38989,4.05529 12.86512,3.3287 2.4027,-0.34045 4.68042,-1.23662 6.569,-2.72506 2.35793,-1.96191 3.84414,-4.91939 4.71773,-7.82709 0.95791,-3.03061 1.53231,-11.03731 2.03711,-14.19795 0.25593,-1.84904 0.4458,-3.70722 0.76781,-5.54711 z"
         id="text2-12-4-6-0-5-2-7-6"
         aria-label="&#10;y"
         sodipodi:nodetypes="ssssscscccccccscccsscccccccccccscccccccss" /></g><path
       style="fill:#000000;stroke-width:0.916851"
       d="m 1149.98,934.23109 c -10.6817,-3.59937 -23.1653,-13.72799 -28.3794,-22.62524 -13.4562,-14.53553 -21.2802,-33.09744 -27.9487,-51.94775 -4.7841,-14.398 -4.7841,-14.398 -6.4701,-7.75906 -6.298,24.79985 -21.6387,37.62606 -31.1272,26.02529 -1.6269,-1.98903 -2.1009,-3.51093 -5.4545,-17.51479 -2.9709,-12.4058 -6.6525,-18.84635 -17.3492,-30.35063 -42.16228,-45.34524 -40.72339,-81.92219 4.0923,-104.02948 18.0612,-8.90939 26.9068,-15.12648 35.8133,-25.17115 11.4793,-12.94619 15.0171,-16.07077 21.8475,-19.29619 12.1003,-5.71393 29.6946,-7.25088 40.2743,-3.51819 57.3882,-39.36337 95.6488,-28.29838 100.4323,-15.60311 -8.6735,-1.41842 -24.9655,-1.50145 -35.1999,5.22805 32.5985,1.22742 57.3385,12.38996 62.4197,10.41861 6.1473,-2.38501 21.3558,-2.52823 29.7977,-0.28062 13.6343,3.62986 18.1499,6.82928 32.534,23.05145 8.7842,9.90674 17.9946,16.44669 34.5467,24.53045 45.9805,22.45601 47.85,58.97133 5.359,104.67018 -10.8355,11.65343 -14.4536,18.05584 -17.4158,30.81816 -2.8864,12.43536 -4.3614,16.13294 -7.4839,18.76029 -10.4589,8.80063 -24.8664,-6.61017 -30.0316,-32.12318 -1.5066,-7.44161 -1.5066,-7.44161 -3.6664,0.43479 -5.1,18.59899 -15.9921,44.25734 -22.2203,52.3436 -1.7477,2.26926 -4.394,6.3714 -5.8806,9.1161 -5.3935,9.95782 -18.1074,21.19507 -29.6521,24.69029 -40.4375,12.24265 -63.9929,11.87307 -98.8371,0.13213 z m 22.5224,-19.04567 c 20.0474,-10.05154 22.4306,-19.94574 8.3941,-34.84954 -24.6495,-26.17233 -15.491,-43.05394 22.3641,-41.22304 32.2629,1.56057 37.6223,17.10521 14.26,41.36071 -14.3884,14.93852 -12.4014,23.41734 7.7603,33.11473 11.8509,5.70007 17.2862,5.32137 27.0772,-1.88634 18.4851,-13.608 19.7221,-35.9579 3.3229,-60.03864 -7.5907,-11.14643 -6.1083,-19.21765 3.5297,-19.21765 5.7874,0 15.5243,11.69038 21.0508,25.27397 2.1429,5.26712 2.1429,5.26712 3.9967,0.31111 42.0869,-112.51055 -20.3952,-171.2596 -83.835,-173.05367 -63.472,-1.79487 -127.9028,53.42319 -89.5236,168.85267 4.214,12.67401 4.214,12.67401 5.8701,7.9713 3.283,-9.3224 16.8028,-30.08188 20.5202,-31.50835 13.4952,-5.17856 16.179,6.29166 5.208,22.25842 -14.5029,21.10676 -14.8524,41.05844 -0.9625,54.94839 10.64,10.63997 20.2957,13.03647 30.967,7.68606 z m -24.2005,-85.83255 c 59.3468,-143.693 59.3468,-143.693 0,0 z m -76.5587,6.63512 c 1.4125,-8.25166 4.0927,-20.98546 5.956,-28.29732 2.2454,-8.81144 3.8308,-17.90681 4.7016,-26.97301 3.5014,-36.4538 13.3339,-62.6594 30.5588,-81.44464 2.6587,-2.89953 4.4831,-5.2658 4.0543,-5.25828 -8.6834,0.15087 -18.8986,5.51725 -24.9293,13.09627 -11.5683,14.53804 -25.1366,24.8966 -45.0376,34.38359 -20.4434,9.74558 -25.2897,15.7883 -25.0822,31.27486 0.2063,15.40406 4.6486,23.23188 26.8425,47.29863 9.0498,9.81356 13.2895,16.50543 16.6802,26.32783 2.7821,8.05894 3.219,7.33204 6.2557,-10.40793 z m 266.774,-2.07364 c 1.5502,-2.70946 6.5988,-8.99624 11.219,-13.9706 37.1877,-40.0372 37.3911,-61.34803 0.7535,-78.93885 -19.517,-9.37071 -32.4007,-19.27454 -44.1682,-33.9529 -5.41,-6.7481 -10.0273,-9.69818 -18.1901,-11.62214 -9.6896,-2.28364 -9.937,-2.08182 -4.6015,3.75604 17.3142,18.94456 26.9781,44.65042 30.6232,81.45771 1.0979,11.08691 2.1654,16.41858 5.5071,27.50548 4.362,14.47231 6.1879,22.13567 7.9733,33.46505 1.9189,12.17547 2.433,12.58478 5.4552,4.34355 1.4354,-3.9143 3.8783,-9.33388 5.4285,-12.04334 z"
       id="path3-4"
       sodipodi:nodetypes="ssssssssssccccssssssssssssssssssssssssssssssssssssssssssssssssssssss" /><path
       style="fill:#000000;stroke-width:0.542965"
       d="m 1097.5608,1001.464 c -0.5755,-2.20943 -0.8742,-15.87443 -0.8962,-29.97698 -0.046,-29.55192 0.9808,-46.83559 12.8605,-51.41093 8.1816,-3.15111 21.5109,-0.27455 43.1828,8.77357 33.571,14.01613 58.6924,14.07051 92.2407,0 18.8009,-7.88524 31.4764,-11.47247 39.9333,-9.77541 12.986,2.60584 16.0246,17.67187 16.0196,48.76919 0.5129,17.86123 1.9774,49.41976 -20.2891,53.15616 -13.0421,1.6305 -25.656,-5.9111 -37.2553,-10.8319 -31.489,-13.36543 -57.9973,-13.26463 -90.1292,0.3431 -20.4503,8.6604 -26.0806,10.8813 -30.839,10.8127 -5.2101,-0.075 -20.5633,-3.4858 -24.8281,-19.8595 z"
       id="path4-9"
       sodipodi:nodetypes="sssssscsssss" /><path
       d="m 1150.5508,999.98397 c 10.9982,-7.3896 42.4941,-38.39115 3.9568,-62.69971 -12.7908,-8.06805 -28.4938,-7.50562 -39.8091,-4.36863 -8.3974,2.32799 -9.8477,65.13514 2.46,73.53737 6.8643,4.6862 16.4578,4.9094 33.3923,-6.46903 z"
       style="fill:#a573ad;fill-opacity:1;stroke-width:0.542965"
       id="path1" /><path
       d="m 1286.0995,1001.0041 c 6.8837,-10.80623 7.4255,-65.77064 -7.5886,-72.099 -5.3425,-1.91406 -13.8293,0.66525 -30.9021,8.55907 -40.8931,18.9076 -20.4431,50.7084 -8.9584,59.2829 12.9031,6.85393 37.7366,19.50363 47.4491,4.25703 z"
       style="fill:#a573ad;fill-opacity:1;stroke-width:0.542965"
       id="path1-0" /><path
       d="m 1218.237,968.28166 c 0,-20.90415 0,-20.90415 -19.8182,-20.90415 -19.8182,0 -19.8182,0 -19.8182,20.90415 0,20.90411 0,20.90411 19.8182,20.90411 19.8182,0 19.8182,0 19.8182,-20.90411 z"
       style="fill:#a573ad;fill-opacity:1;stroke-width:0.542965"
       id="path1-2" /><path
       d="m 1072.2927,837.46831 c 1.432,-8.44767 4.1493,-21.48387 6.0384,-28.96956 2.2765,-9.02066 3.8838,-18.33211 4.7667,-27.61372 3.5498,-37.31982 13.5186,-64.1479 30.982,-83.37942 2.6955,-2.96843 4.5452,-5.39093 4.1105,-5.38328 -8.8037,0.15457 -19.1604,5.64846 -25.2746,13.40738 -11.7285,14.88347 -25.4846,25.4882 -45.6613,35.20051 -20.7264,9.97696 -25.6398,16.1633 -25.4295,32.01786 0.2092,15.76995 4.713,23.78362 27.2143,48.4223 9.175,10.04653 13.4735,16.89745 16.9112,26.95322 2.8205,8.25047 3.2635,7.50615 6.3423,-10.65529 z"
       style="fill:#ffff8c;fill-opacity:1;stroke-width:0.934079"
       id="path1-3" /><path
       d="m 1325.6412,837.36417 c -1.4573,-8.35501 -4.2224,-21.2484 -6.1448,-28.65199 -2.3166,-8.92192 -3.9522,-18.1312 -4.8506,-27.31105 -3.6124,-36.91077 -13.7568,-63.44477 -31.5278,-82.46562 -2.7429,-2.93583 -4.6253,-5.3318 -4.1829,-5.32414 8.9588,0.15271 19.4979,5.58641 25.7198,13.26033 11.9351,14.72033 25.9336,25.20877 46.4656,34.81469 21.0915,9.86767 26.0915,15.98616 25.8775,31.66688 -0.2129,15.59717 -4.7961,23.52307 -27.6937,47.89156 -9.3366,9.93644 -13.7108,16.71239 -17.209,26.65781 -2.8703,8.16005 -3.3211,7.42391 -6.4541,-10.53847 z"
       style="fill:#ffff8c;fill-opacity:1;stroke-width:0.937091"
       id="path1-3-1" /><path
       d="m 1115.5623,786.33655 c -9.8888,-9.88892 2.2903,-29.10711 23.488,-37.06323 27.004,-10.13548 63.0357,9.88233 48.0259,26.68131 -4.979,5.57242 -11.6714,5.79404 -19.1286,0.63371 -10.3736,-7.17868 -21.1117,-4.99218 -31.9036,6.49652 -8.2405,8.77251 -14.04,9.6933 -20.4817,3.25169 z"
       style="fill:#000000;stroke-width:1.31995"
       id="path1-49-21" /><path
       d="m 1284.1694,785.96089 c 9.8888,-9.88892 -2.2903,-29.1071 -23.488,-37.06322 -27.004,-10.13549 -63.0357,9.88232 -48.0258,26.6813 4.9789,5.57243 11.6713,5.79405 19.1285,0.63371 10.3737,-7.17867 21.1117,-4.99218 31.9036,6.49652 8.2406,8.77251 14.0401,9.6933 20.4817,3.25169 z"
       style="fill:#000000;stroke-width:1.31995"
       id="path1-49-2-6" /></g></svg>
