<?xml version="1.0" encoding="UTF-8" standalone="no"?>
<svg
   height="15.334603"
   viewBox="0 -960 744.41913 736.06096"
   width="15.508732"
   version="1.1"
   id="svg1"
   sodipodi:docname="rate-full.svg"
   xmlns:inkscape="http://www.inkscape.org/namespaces/inkscape"
   xmlns:sodipodi="http://sodipodi.sourceforge.net/DTD/sodipodi-0.dtd"
   xmlns="http://www.w3.org/2000/svg"
   xmlns:svg="http://www.w3.org/2000/svg">
  <defs
     id="defs1" />
  <sodipodi:namedview
     id="namedview1"
     pagecolor="#505050"
     bordercolor="#ffffff"
     borderopacity="1"
     inkscape:showpageshadow="0"
     inkscape:pageopacity="0"
     inkscape:pagecheckerboard="1"
     inkscape:deskcolor="#505050" />
  <path
     d="m 373.20958,-361 -133,100 q -19,14 -39.5,13 -20.5,-1 -36.5,-12 -16,-10 -23,-28.5 -7,-18.5 -1,-41.5 l 52,-166 -143.000001,-116 q -18,-15 -23,-33.5 -5,-18.5 1,-36.5 7,-19 22,-31.5 15,-12.5 39,-12.5 H 256.20958 l 55,-165 q 6,-24 23.5,-34.5 17.5,-10.5 37.5,-10.5 20,0 37.5,10.5 17.5,10.5 23.5,34.5 l 55,165 h 168 q 24,0 39,12.5 15,12.5 22,31.5 6,18 1,36.5 -5,18.5 -23,33.5 l -143,116 52,165 q 6,23 -1,41 -7,18 -23,29 -16,12 -36,13 -20,1 -39,-14 z"
     id="path1"
     style="fill:#ff9700;fill-opacity:1;stroke:#cf5e12;stroke-width:48;stroke-dasharray:none;stroke-opacity:1" />
</svg>
