<?xml version="1.0" encoding="UTF-8" standalone="no"?>
<!-- Created with Inkscape (http://www.inkscape.org/) -->

<svg
   width="326.89764"
   height="78.107971"
   viewBox="0 0 326.89764 78.107971"
   version="1.1"
   id="svg1"
   xml:space="preserve"
   inkscape:version="1.3 (0e150ed, 2023-07-21)"
   sodipodi:docname="Logo.svg"
   xmlns:inkscape="http://www.inkscape.org/namespaces/inkscape"
   xmlns:sodipodi="http://sodipodi.sourceforge.net/DTD/sodipodi-0.dtd"
   xmlns="http://www.w3.org/2000/svg"
   xmlns:svg="http://www.w3.org/2000/svg"><sodipodi:namedview
     id="namedview1"
     pagecolor="#ffffff"
     bordercolor="#000000"
     borderopacity="0.25"
     inkscape:showpageshadow="2"
     inkscape:pageopacity="0.0"
     inkscape:pagecheckerboard="0"
     inkscape:deskcolor="#d1d1d1"
     inkscape:document-units="px"
     inkscape:zoom="0.53515625"
     inkscape:cx="1140.7883"
     inkscape:cy="569.92701"
     inkscape:window-width="1364"
     inkscape:window-height="748"
     inkscape:window-x="0"
     inkscape:window-y="18"
     inkscape:window-maximized="1"
     inkscape:current-layer="layer1" /><defs
     id="defs1" /><g
     inkscape:label="Layer 1"
     inkscape:groupmode="layer"
     id="layer1"
     transform="translate(-35.999996,-648.99994)"><g
       id="g9-5-7-6-5"
       transform="matrix(1.4039498,0,0,1.4039498,-53.31012,143.08233)"
       style="display:inline;fill:#ffffff;stroke:#ffffff"
       inkscape:export-filename="../../../../../Programacion WEB/TallerNo2/MaquetaPetPretty/assets/svg/textlogo-white.svg"
       inkscape:export-xdpi="96"
       inkscape:export-ydpi="96"><text
         xml:space="preserve"
         style="font-style:normal;font-variant:normal;font-weight:normal;font-stretch:normal;font-size:66.6667px;font-family:'Tovari Sans';-inkscape-font-specification:'Tovari Sans';letter-spacing:2px;fill:#ffffff;fill-opacity:1;stroke:#ffffff;stroke-width:2;stroke-dasharray:none"
         x="188.7816"
         y="301.10815"
         id="text2-51-3-0-3"
         transform="rotate(3.88578)"><tspan
           sodipodi:role="line"
           id="tspan2-85-1-2-5"
           x="188.7816"
           y="301.10815"
           style="text-align:center;letter-spacing:2px;text-anchor:middle;fill:#ffffff;fill-opacity:1;stroke:#ffffff;stroke-width:2;stroke-dasharray:none" /><tspan
           sodipodi:role="line"
           x="189.7816"
           y="384.44153"
           id="tspan3-5-1-9-6"
           style="text-align:center;letter-spacing:2px;text-anchor:middle;fill:#ffffff;fill-opacity:1;stroke:#ffffff;stroke-width:2;stroke-dasharray:none">p</tspan></text><text
         xml:space="preserve"
         style="font-style:normal;font-variant:normal;font-weight:normal;font-stretch:normal;font-size:66.6667px;font-family:'Tovari Sans';-inkscape-font-specification:'Tovari Sans';letter-spacing:2px;fill:#ffffff;fill-opacity:1;stroke:#ffffff;stroke-width:2;stroke-dasharray:none"
         x="78.546761"
         y="313.12781"
         id="text2-0-5-2-4-2"><tspan
           sodipodi:role="line"
           id="tspan2-6-6-2-4-9"
           x="78.546761"
           y="313.12781"
           style="text-align:center;letter-spacing:2px;text-anchor:middle;fill:#ffffff;fill-opacity:1;stroke:#ffffff;stroke-width:2;stroke-dasharray:none" /><tspan
           sodipodi:role="line"
           x="79.546761"
           y="396.46118"
           id="tspan3-48-5-1-1-1"
           style="font-style:normal;font-variant:normal;font-weight:normal;font-stretch:normal;font-size:66.6667px;font-family:'Tovari Sans';-inkscape-font-specification:'Tovari Sans';font-variant-ligatures:normal;font-variant-caps:normal;font-variant-numeric:normal;font-variant-east-asian:normal;text-align:center;letter-spacing:2px;text-anchor:middle;fill:#ffffff;fill-opacity:1;stroke:#ffffff;stroke-width:2;stroke-dasharray:none">p</tspan></text><text
         xml:space="preserve"
         style="font-style:normal;font-variant:normal;font-weight:normal;font-stretch:normal;font-size:66.6667px;font-family:'Tovari Sans';-inkscape-font-specification:'Tovari Sans';letter-spacing:2px;fill:#ffffff;fill-opacity:1;stroke:#ffffff;stroke-width:2;stroke-dasharray:none"
         x="127.27267"
         y="339.70413"
         id="text2-12-49-8-4-2"
         transform="rotate(-9.4184695)"><tspan
           sodipodi:role="line"
           id="tspan2-8-90-0-4-7"
           x="127.27267"
           y="339.70413"
           style="text-align:center;letter-spacing:2px;text-anchor:middle;fill:#ffffff;fill-opacity:1;stroke:#ffffff;stroke-width:2;stroke-dasharray:none" /><tspan
           sodipodi:role="line"
           x="128.27267"
           y="423.03751"
           id="tspan3-7-5-8-1-0"
           style="text-align:center;letter-spacing:2px;text-anchor:middle;fill:#ffffff;fill-opacity:1;stroke:#ffffff;stroke-width:2;stroke-dasharray:none">r</tspan></text><text
         xml:space="preserve"
         style="font-style:normal;font-variant:normal;font-weight:normal;font-stretch:normal;font-size:66.6667px;font-family:'Tovari Sans';-inkscape-font-specification:'Tovari Sans';letter-spacing:2px;fill:#ffffff;fill-opacity:1;stroke:#ffffff;stroke-width:2;stroke-dasharray:none"
         x="304.09192"
         y="248.81206"
         id="text2-12-4-87-5-1-9"
         transform="rotate(14.848493)"><tspan
           sodipodi:role="line"
           id="tspan2-8-9-5-1-7-3"
           x="304.09192"
           y="248.81206"
           style="text-align:center;letter-spacing:2px;text-anchor:middle;fill:#ffffff;fill-opacity:1;stroke:#ffffff;stroke-width:2;stroke-dasharray:none" /><tspan
           sodipodi:role="line"
           x="305.09192"
           y="332.14545"
           id="tspan3-7-9-1-7-9-6"
           style="text-align:center;letter-spacing:2px;text-anchor:middle;fill:#ffffff;fill-opacity:1;stroke:#ffffff;stroke-width:2;stroke-dasharray:none">e</tspan></text><text
         xml:space="preserve"
         style="font-style:normal;font-variant:normal;font-weight:normal;font-stretch:normal;font-size:66.6667px;font-family:'Tovari Sans';-inkscape-font-specification:'Tovari Sans';letter-spacing:2px;fill:#ffffff;fill-opacity:1;stroke:#ffffff;stroke-width:2;stroke-dasharray:none"
         x="-66.356087"
         y="322.39117"
         id="text2-12-4-8-7-7-8-0"
         transform="rotate(-25.226575)"><tspan
           sodipodi:role="line"
           id="tspan2-8-9-4-0-0-9-6"
           x="-66.356087"
           y="322.39117"
           style="text-align:center;letter-spacing:2px;text-anchor:middle;fill:#ffffff;fill-opacity:1;stroke:#ffffff;stroke-width:2;stroke-dasharray:none" /><tspan
           sodipodi:role="line"
           x="-65.356087"
           y="405.72455"
           id="tspan3-7-9-0-9-2-3-2"
           style="text-align:center;letter-spacing:2px;text-anchor:middle;fill:#ffffff;fill-opacity:1;stroke:#ffffff;stroke-width:2;stroke-dasharray:none">e</tspan></text><text
         xml:space="preserve"
         style="font-style:normal;font-variant:normal;font-weight:normal;font-stretch:normal;font-size:66.6667px;font-family:'Tovari Sans';-inkscape-font-specification:'Tovari Sans';letter-spacing:2px;fill:#ffffff;fill-opacity:1;stroke:#ffffff;stroke-width:2;stroke-dasharray:none"
         x="199.4072"
         y="340.21725"
         id="text2-12-4-6-5-4-3-6"
         transform="rotate(-5.9127177)"><tspan
           sodipodi:role="line"
           id="tspan2-8-9-6-77-9-8-1"
           x="199.4072"
           y="340.21725"
           style="text-align:center;letter-spacing:2px;text-anchor:middle;fill:#ffffff;fill-opacity:1;stroke:#ffffff;stroke-width:2;stroke-dasharray:none" /><tspan
           sodipodi:role="line"
           x="200.4072"
           y="423.55063"
           id="tspan3-7-9-2-5-9-3-8"
           style="text-align:center;letter-spacing:2px;text-anchor:middle;fill:#ffffff;fill-opacity:1;stroke:#ffffff;stroke-width:2;stroke-dasharray:none">t</tspan></text><text
         xml:space="preserve"
         style="font-style:normal;font-variant:normal;font-weight:normal;font-stretch:normal;font-size:66.6667px;font-family:'Tovari Sans';-inkscape-font-specification:'Tovari Sans';letter-spacing:2px;fill:#ffffff;fill-opacity:1;stroke:#ffffff;stroke-width:2;stroke-dasharray:none"
         x="197.05896"
         y="288.75125"
         id="text2-12-4-6-2-2-8-1-7"
         transform="rotate(9.9978389)"><tspan
           sodipodi:role="line"
           id="tspan2-8-9-6-3-9-8-8-9"
           x="197.05896"
           y="288.75125"
           style="text-align:center;letter-spacing:2px;text-anchor:middle;fill:#ffffff;fill-opacity:1;stroke:#ffffff;stroke-width:2;stroke-dasharray:none" /><tspan
           sodipodi:role="line"
           x="198.05896"
           y="372.08463"
           id="tspan3-7-9-2-7-8-8-3-2"
           style="text-align:center;letter-spacing:2px;text-anchor:middle;fill:#ffffff;fill-opacity:1;stroke:#ffffff;stroke-width:2;stroke-dasharray:none">t</tspan></text><path
         style="font-size:66.6667px;font-family:'Tovari Sans';-inkscape-font-specification:'Tovari Sans';text-align:center;letter-spacing:2px;text-anchor:middle;fill:#ffffff;fill-opacity:1;stroke:#ffffff;stroke-width:2"
         d="m 177.71407,415.5334 c 0.19717,-0.48805 5.34177,0.074 7.29457,0.20231 0,2.93333 -0.26667,5.93334 -0.4,8.86667 -0.0667,2.8 -0.4,6.06667 1.06667,8.60001 0.46667,0.8 1.26667,1.66666 2.13333,2.06666 1.4,0.66667 3,0.93334 4.53334,1.06667 4,0.26667 8.93334,-0.46667 11.46667,-3.93333 0,-0.0667 0,-0.13334 -0.0667,-0.13334 l 9e-5,5e-5 v -0.0667 c -1.73333,-1.20001 -3.33333,-2.73334 -4.4,-4.60001 -0.0667,-0.0667 -0.13333,-0.0667 -0.13333,-0.0667 -1.8,1.26666 -4.13334,2.33333 -6.2,1 -0.86667,-0.53334 -1.20001,-1.46667 -1.26667,-2.46667 -0.0667,-1 0,-2.06667 0,-3.13334 0,-2.06666 0.0667,-4.06667 0.13333,-6.06667 0.0667,-0.46666 0.0667,-0.86666 0.0667,-1.33333 h 0.46667 c 1.73333,-0.0667 3.53333,0.2 5.33333,0.26667 0.0667,0 0.0667,-0.0667 0.13333,-0.13334 0.0667,-1.13333 0.40001,-2.33333 0.73334,-3.46667 0.4,-1.06666 0.86667,-2.2 1.46667,-3.13333 0.0667,-0.0667 0,-0.2 -0.0667,-0.2 -2.8,0 -5.53334,0.0667 -8.26667,0.0667 0,-0.93334 0.0667,-1.8 0.0667,-2.66667 0.0667,-1.33334 -0.0667,-2.66667 -0.0667,-4 l -0.13334,-0.13334 c -0.8,0 -1.6,-0.13333 -2.46666,-0.13333 -1.4,-0.0667 -2.86667,-0.0667 -4.33334,0.2 -0.0667,0 -0.0667,0 -0.0667,0.0667 0,1.8 -0.13333,3.6 -0.13333,5.4 v 1.26667 c -1.60993,-0.0604 -4.49485,-0.0972 -4.99639,-0.22766"
         id="text2-12-4-6-0-6-5-6-0"
         transform="rotate(-9.4335648)"
         aria-label="&#10;t"
         sodipodi:nodetypes="cccccccscccccsscccccccsccccccsscc" /><path
         style="font-size:66.6667px;font-family:'Tovari Sans';-inkscape-font-specification:'Tovari Sans';text-align:center;letter-spacing:2px;text-anchor:middle;fill:#ffffff;fill-opacity:1;stroke:#ffffff;stroke-width:2"
         d="m 292.99371,382.07663 c 0.2468,-1.78301 0.42752,-3.57515 0.67432,-5.35816 0.44789,-3.23581 0.95272,-6.39645 1.40061,-9.63227 l 0.38391,-2.77355 c 0.009,-0.0661 -0.0478,-0.14122 -0.1138,-0.15036 -2.24526,-0.31078 -5.18951,-0.92022 -7.21931,0.61598 l -0.009,0.0661 c -0.46617,3.36789 -1.00755,6.79268 -1.93595,10.09659 -0.52923,1.87851 -1.19967,3.80477 -2.29581,5.40292 -0.93664,1.4183 -2.30813,2.57451 -3.97528,2.94947 -1.38472,0.27944 -3.11083,0.10782 -4.26499,-0.79225 -2.19452,-1.64981 -1.70093,-5.21581 -1.37187,-7.59315 0.2173,-2.0563 0.5098,-4.16948 0.79316,-6.21663 0.23974,-1.24556 0.47027,-2.42509 0.57794,-3.68894 0.15539,-1.12262 0.24472,-2.2544 0.40011,-3.37703 0.009,-0.0661 -0.0478,-0.14122 -0.1138,-0.15036 -2.45252,-0.27213 -5.03505,-0.0912 -7.48345,0.57942 l -0.009,0.0661 c -0.322,1.83989 -0.5688,3.6229 -0.82474,5.47193 -0.21024,1.51886 -0.56168,3.08547 -0.78106,4.67036 -0.45703,3.30185 -0.6113,6.84752 0.0726,10.17269 0.56804,2.70341 1.95594,5.3184 4.30082,6.85442 2.03297,1.35824 4.92946,1.82646 7.34131,1.41997 2.62823,-0.51113 4.57166,-2.3958 6.01421,-4.55171 -0.20109,1.45282 -0.41133,2.97167 -0.75363,4.47224 -0.39514,2.3682 -1.20825,9.66883 -2.8124,11.53315 -2.07344,2.3378 -5.70137,2.77786 -8.4699,1.38512 -1.62555,-0.89803 -2.87728,-2.55195 -3.80796,-4.09412 0.009,-0.0661 -0.0569,-0.0752 -0.13207,-0.0183 -1.05454,0.32516 -2.15478,0.98049 -3.11382,1.58807 -0.96816,0.67362 -2.01151,1.40413 -2.67692,2.32156 -0.0843,0.12293 -0.30985,0.29363 -0.32813,0.4257 -0.0274,0.19811 0.12498,0.55571 0.23878,0.70608 0.25706,0.57399 0.51412,1.14799 0.84635,1.6651 0.65534,1.10024 1.52707,2.09583 2.49225,2.90246 3.54885,3.0487 8.38989,4.05529 12.86512,3.3287 2.4027,-0.34045 4.68042,-1.23662 6.569,-2.72506 2.35793,-1.96191 3.84414,-4.91939 4.71773,-7.82709 0.95791,-3.03061 1.53231,-11.03731 2.03711,-14.19795 0.25593,-1.84904 0.4458,-3.70722 0.76781,-5.54711 z"
         id="text2-12-4-6-0-5-2-7-6-2"
         aria-label="&#10;y"
         sodipodi:nodetypes="ssssscscccccccscccsscccccccccccscccccccss" /></g></g></svg>
