<?xml version="1.0" encoding="UTF-8" standalone="no"?>
<!-- Created with Inkscape (http://www.inkscape.org/) -->

<svg
   width="326.89767"
   height="77.000366"
   viewBox="0 0 326.89767 77.000366"
   version="1.1"
   id="svg1"
   xml:space="preserve"
   inkscape:version="1.3 (0e150ed, 2023-07-21)"
   sodipodi:docname="Logo.svg"
   xmlns:inkscape="http://www.inkscape.org/namespaces/inkscape"
   xmlns:sodipodi="http://sodipodi.sourceforge.net/DTD/sodipodi-0.dtd"
   xmlns="http://www.w3.org/2000/svg"
   xmlns:svg="http://www.w3.org/2000/svg"><sodipodi:namedview
     id="namedview1"
     pagecolor="#ffffff"
     bordercolor="#000000"
     borderopacity="0.25"
     inkscape:showpageshadow="2"
     inkscape:pageopacity="0.0"
     inkscape:pagecheckerboard="0"
     inkscape:deskcolor="#d1d1d1"
     inkscape:document-units="px"
     inkscape:zoom="0.53515625"
     inkscape:cx="1140.7883"
     inkscape:cy="569.92701"
     inkscape:window-width="1364"
     inkscape:window-height="748"
     inkscape:window-x="0"
     inkscape:window-y="18"
     inkscape:window-maximized="1"
     inkscape:current-layer="layer1" /><defs
     id="defs1" /><g
     inkscape:label="Layer 1"
     inkscape:groupmode="layer"
     id="layer1"
     transform="translate(385.00003,657.00006)"><g
       id="g9-5-7-6-3"
       transform="matrix(1.4039498,0,0,1.4039498,-474.31012,-1162.9177)"
       style="fill:#000000;stroke:#000000"
       inkscape:export-filename="../../../../../Programacion WEB/TalleNo1/PrototipoHTML/assets/svg/textlogo.svg"
       inkscape:export-xdpi="96"
       inkscape:export-ydpi="96"><path
         style="font-size:66.6667px;font-family:'Tovari Sans';-inkscape-font-specification:'Tovari Sans';text-align:center;letter-spacing:2px;text-anchor:middle;fill:#a573ad;stroke-width:2"
         d="m 194.71499,356.77485 q 3.66666,1.2 5.73333,4.93334 2.13334,3.73333 2.2,7.86667 0,1.13333 -0.13333,2.2 -0.53333,4.33333 -3.2,7.93334 -2.66667,3.53333 -6.66667,4.86667 -4.80001,1.6 -9.46667,-0.33334 0,0.8 -0.33334,8.73334 0,0.93333 -0.2,3.8 -0.13333,2.86667 -0.13333,4.4 0,0.0667 -0.0667,0.0667 -1.73333,0.93333 -3.8,0.93333 -2.06667,0.0667 -3.73334,-0.93333 -0.0667,-0.0667 -0.0667,-0.13333 0.46666,-6.33334 0.46666,-7.73334 0.0667,-3.46667 0.0667,-3.46667 0.0667,-0.6 0.13334,-1.73333 0.0667,-1.13334 0.0667,-1.66667 0.13334,-1.33333 0.13334,-3.73334 0.0667,-2.4 0.0667,-3.2 0.13334,-2.06666 0,-6.66667 0,-3.2 -0.13333,-4.53333 -0.33334,-5.06667 -0.6,-10.00001 0,-0.53333 0.13333,-0.66667 0.0667,-0.0667 0.6,-0.33333 0.73334,-0.33333 1.8,-0.6 2.26667,-0.53333 5.26667,-0.53333 0.0667,0 0.0667,0.0667 0,1 0.0667,2.46667 1.33333,-0.93333 2.86666,-1.46667 4.80001,-1.86666 8.86668,-0.53333 z m 0,14.26667 q 0.33333,-1.06666 0.2,-2.4 -0.0667,-1.4 -0.4,-2.6 -0.26667,-1.26667 -1.20001,-2.13333 -0.86666,-0.86667 -2.26666,-0.93334 -1.93334,-0.0667 -3.73334,1.33334 -1.73333,1.4 -2.8,3.33333 -0.93333,1.8 -1,4.13334 -0.0667,2.33333 0.73333,4.26667 0.66667,1.66667 2.2,2 1.80001,0.4 3.60001,-0.0667 1.6,-0.46666 2.86666,-2.4 1.26667,-2.06667 1.80001,-4.53334 z"
         id="text2-51-3-0-6"
         transform="rotate(3.88578)"
         aria-label="&#10;p" /><path
         style="font-size:66.6667px;font-family:'Tovari Sans';-inkscape-font-specification:'Tovari Sans';text-align:center;letter-spacing:2px;text-anchor:middle;fill:#ffff8c;stroke-width:2"
         d="m 84.480145,368.7945 q 3.666668,1.2 5.733336,4.93334 2.133335,3.73334 2.200001,7.86667 0,1.13333 -0.133333,2.2 -0.533334,4.33334 -3.200002,7.93334 -2.666668,3.53333 -6.66667,4.86667 -4.800002,1.6 -9.466672,-0.33333 0,0.8 -0.333333,8.73333 0,0.93334 -0.2,3.80001 -0.133334,2.86666 -0.133334,4.4 0,0.0667 -0.06667,0.0667 -1.733335,0.93334 -3.800002,0.93334 -2.066668,0.0667 -3.733336,-0.93334 -0.06667,-0.0667 -0.06667,-0.13333 0.466667,-6.33334 0.466667,-7.73334 0.06667,-3.46666 0.06667,-3.46666 0.06667,-0.60001 0.133334,-1.73334 0.06667,-1.13333 0.06667,-1.66667 0.133334,-1.33333 0.133334,-3.73333 0.06667,-2.4 0.06667,-3.2 0.133334,-2.06667 0,-6.66667 0,-3.20001 -0.133333,-4.53334 -0.333333,-5.06667 -0.6,-10.00001 0,-0.53333 0.133333,-0.66666 0.06667,-0.0667 0.6,-0.33334 0.733334,-0.33333 1.800001,-0.6 2.266668,-0.53333 5.26667,-0.53333 0.06667,0 0.06667,0.0667 0,1 0.06667,2.46667 1.333334,-0.93334 2.866668,-1.46667 4.800003,-1.86667 8.866672,-0.53334 z m 0,14.26668 q 0.333333,-1.06667 0.2,-2.4 -0.06667,-1.4 -0.4,-2.6 -0.266667,-1.26667 -1.200001,-2.13334 -0.866667,-0.86667 -2.266668,-0.93333 -1.933334,-0.0667 -3.733335,1.33333 -1.733334,1.4 -2.800002,3.33334 -0.933333,1.8 -1,4.13333 -0.06667,2.33334 0.733334,4.26667 0.666667,1.66667 2.200001,2 1.800001,0.4 3.600002,-0.0667 1.600001,-0.46667 2.866668,-2.40001 1.266667,-2.06666 1.800001,-4.53333 z"
         id="text2-0-5-2-4-2"
         aria-label="&#10;p" /><path
         style="font-size:66.6667px;font-family:'Tovari Sans';-inkscape-font-specification:'Tovari Sans';text-align:center;letter-spacing:2px;text-anchor:middle;fill:#a573ad;stroke-width:2"
         d="m 140.10606,398.37083 q 0.0667,0.0667 0.0667,0.13333 -0.6,1.66667 -2.53334,3.46667 -1.53333,1.46667 -3.13333,2.33334 -0.0667,0.0667 -0.0667,0 -1.2,-1.4 -3.33334,-1.73334 -2.06666,-0.33333 -3.73333,0.53334 -2.33334,1.06666 -3.2,3.73333 -0.33334,1.06667 -0.66667,4 -0.26667,2.73334 -0.26667,6.00001 0.0667,3.73333 0.46667,6.2 0,0.13333 -0.0667,0.13333 -0.93333,-0.0667 -8.8,0 -0.13333,0 -0.13333,-0.13333 0,-0.13333 -0.2,-5.46667 -0.26667,-6.53334 0.26666,-13.13334 0.2,-2.13333 0.33334,-4.4 0.2,-3.2 0.2,-3.53334 0,-0.13333 0.13333,-0.13333 2.4,-0.93333 3.26667,-1.13333 1.73333,-0.40001 4.26667,-0.40001 0.0667,0 0.0667,0.0667 0.0667,2.13334 0.0667,3.33334 0,0.46666 0,1.26666 1.13333,-1.93333 2.73334,-3 2.53333,-1.73333 6.86667,-1.66667 2.13333,0 4.13333,1.00001 2,0.93333 3.26667,2.53333 z"
         id="text2-12-49-8-4-8"
         transform="rotate(-9.4184695)"
         aria-label="&#10;r" /><path
         style="font-size:66.6667px;font-family:'Tovari Sans';-inkscape-font-specification:'Tovari Sans';text-align:center;letter-spacing:2px;text-anchor:middle;fill:#a573ad;stroke-width:2"
         d="m 317.6586,328.07877 v 0.0667 q 0,0.0667 0,0.0667 -1.13333,1.13333 -2.2,1.93333 -3.8,2.86667 -9.4,2.80001 -3.26667,0 -6.13334,-0.73334 -2.6,-0.6 -4.06667,-1.73333 -2.13333,-1.6 -3.53333,-3.93334 -1.4,-2.33333 -1.73334,-4.93333 -0.73333,-6.20001 2.26667,-11.06668 1.4,-2.26666 2.86667,-3.46666 1.53333,-1.33334 3.6,-2.13334 2.46667,-1 5.33334,-1 2.93333,-0.0667 4.53333,0.53333 3.8,1.33334 6.46667,5.40001 1.46667,2.26666 1.86667,5.06667 0.46667,2.73333 -0.26667,5.26667 -0.26666,0.73333 -0.73333,0.8 -0.4,0.0667 -2,0.13333 -0.66667,0 -1.6,0.0667 -0.86667,0 -1.8,0.0667 -0.86667,0 -1.53334,0 -0.8,0 -4.86667,0.0667 -4,0 -6.13333,0.0667 0.46666,2.53333 3.13333,3.73333 1.93334,0.93334 4.4,0.53334 1.46667,-0.2 2.73334,-0.73334 0.6,-0.26667 1.13333,-0.6 0.33334,-0.26667 0.6,-0.2 1.33334,0.4 3.66667,1.6 2.4,1.33334 3.4,2.33334 z m -16.33334,-16.13335 q -1.73333,1.60001 -2.66667,4.00001 0.6,0 2.33334,0 1.73333,-0.0667 2.66667,-0.0667 0.4,0 1.2,0.0667 0.8,0.0667 0.93333,0.0667 1,0.0667 2.86667,0 1.33333,-0.0667 1.53333,-0.0667 0.46667,0 0.53334,0 0,-0.0667 0.0667,-0.46667 0,-0.93333 -0.73333,-2.26667 -1.4,-2.46667 -3.6,-2.86667 -2.8,-0.46666 -5.13334,1.6 z"
         id="text2-12-4-87-5-1-2"
         transform="rotate(14.848493)"
         aria-label="&#10;e" /><path
         style="font-size:66.6667px;font-family:'Tovari Sans';-inkscape-font-specification:'Tovari Sans';text-align:center;letter-spacing:2px;text-anchor:middle;fill:#ffff8c;stroke-width:2"
         d="m -52.789403,401.65788 v 0.0667 q 0,0.0667 0,0.0667 -1.133334,1.13333 -2.200001,1.93333 -3.800002,2.86667 -9.400005,2.8 -3.266668,0 -6.133336,-0.73333 -2.600002,-0.6 -4.066669,-1.73334 -2.133335,-1.6 -3.533336,-3.93333 -1.4,-2.33334 -1.733334,-4.93334 -0.733333,-6.2 2.266668,-11.06667 1.400001,-2.26667 2.866668,-3.46667 1.533334,-1.33333 3.600002,-2.13333 2.466668,-1 5.333336,-1 2.933335,-0.0667 4.533336,0.53333 3.800002,1.33333 6.46667,5.4 1.466668,2.26667 1.866668,5.06667 0.466667,2.73334 -0.266667,5.26667 -0.266667,0.73334 -0.733334,0.8 -0.4,0.0667 -2.000001,0.13334 -0.666667,0 -1.600001,0.0667 -0.866667,0 -1.8,0.0667 -0.866668,0 -1.533335,0 -0.8,0 -4.866669,0.0667 -4.000002,0 -6.133336,0.0667 0.466666,2.53334 3.133335,3.73334 1.933334,0.93333 4.400002,0.53333 1.466667,-0.2 2.733335,-0.73333 0.6,-0.26667 1.133334,-0.6 0.333333,-0.26667 0.6,-0.2 1.333334,0.4 3.666669,1.6 2.400001,1.33333 3.400001,2.33333 z m -16.333342,-16.13334 q -1.733334,1.6 -2.666668,4 0.600001,0 2.333335,0 1.733334,-0.0667 2.666668,-0.0667 0.4,0 1.200001,0.0667 0.8,0.0667 0.933333,0.0667 1.000001,0.0667 2.866669,0 1.333334,-0.0667 1.533334,-0.0667 0.466667,0 0.533333,0 0,-0.0667 0.06667,-0.46666 0,-0.93334 -0.733334,-2.26667 -1.4,-2.46667 -3.600002,-2.86667 -2.800001,-0.46667 -5.133336,1.6 z"
         id="text2-12-4-8-7-7-8-3"
         transform="rotate(-25.226575)"
         aria-label="&#10;e" /><text
         xml:space="preserve"
         style="font-style:normal;font-variant:normal;font-weight:normal;font-stretch:normal;font-size:66.6667px;font-family:'Tovari Sans';-inkscape-font-specification:'Tovari Sans';letter-spacing:2px;fill:#a573ad;fill-opacity:1;stroke:#000000;stroke-width:2;stroke-dasharray:none"
         x="199.4072"
         y="340.21725"
         id="text2-12-4-6-5-4-3-9"
         transform="rotate(-5.9127177)"><tspan
           sodipodi:role="line"
           id="tspan2-8-9-6-77-9-8-2"
           x="199.4072"
           y="340.21725"
           style="text-align:center;letter-spacing:2px;text-anchor:middle;fill:#a573ad;fill-opacity:1;stroke:#000000;stroke-width:2;stroke-dasharray:none" /><tspan
           sodipodi:role="line"
           x="200.4072"
           y="423.55063"
           id="tspan3-7-9-2-5-9-3-2"
           style="text-align:center;letter-spacing:2px;text-anchor:middle;fill:#a573ad;fill-opacity:1;stroke:#000000;stroke-width:2;stroke-dasharray:none">t</tspan></text><path
         style="font-size:66.6667px;font-family:'Tovari Sans';-inkscape-font-specification:'Tovari Sans';text-align:center;letter-spacing:2px;text-anchor:middle;fill:#ffff8c;stroke-width:2"
         d="m 208.65898,368.75129 q 0.0667,0.0667 0,0.13334 -1.73334,2.46667 -4.86667,3.33333 -3.06667,0.86667 -6.53334,0.6 -2.93333,-0.2 -4.6,-1 -1.26667,-0.66666 -2.13334,-2.13333 -0.93333,-1.66667 -1.06666,-4.2 -0.13334,-2.53334 0.0667,-4.33334 0,-1.13333 0.0667,-2.86667 0.13333,-1.73333 0.2,-3.2 0.0667,-1.53333 0.0667,-2.86667 -0.8,0 -2.33334,-0.0667 -1.46667,-0.13334 -2,-0.13334 -0.13333,-0.0667 -0.13333,-0.13333 l 0.46666,-6.33334 v -0.0667 q 0,-0.0667 0.0667,-0.0667 0.26667,0 0.53333,0 0.33334,0 0.66667,0 0.4,0 0.6,0 0.33334,0 0.86667,0 0.6,0 0.93333,0 -0.0667,-0.66667 -0.0667,-1.2 0.0667,-0.66667 0.0667,-1.73334 0,-1.06666 0,-2 0.0667,-0.93333 0.0667,-1.66667 0,-0.13333 0.0667,-0.13333 2.06666,-0.26667 4.4,-0.2 0.33333,0 0.73333,0.0667 0.46667,0.0667 0.86667,0.13333 0.46667,0 0.8,0 0.13333,0 0.13333,0.13333 0,0.33334 0.0667,1.80001 0.0667,1.4 0.0667,2.13333 -0.0667,2.4 -0.0667,2.66667 7.2,0 8.2,0 0.2,0 0.0667,0.13333 -0.73333,1.26667 -1.4,3.2 -0.66667,1.93334 -0.8,3.46667 0,0.13334 -0.13333,0.0667 -0.53334,0 -1.33334,-0.0667 -0.73333,-0.0667 -1.33333,-0.0667 -0.6,-0.0667 -1.33334,-0.0667 -0.73333,-0.0667 -1.33333,0 -0.0667,0 -0.26667,0 -0.13333,0 -0.2,0 0,0.73333 0,1.26667 -0.2,3.93333 -0.2,6.13333 0,2.86667 0,3.13334 0.13334,1.66666 1.26667,2.4 2.6,1.66667 6.2,-0.93334 0.0667,-0.0667 0.13334,0 1.6,2.66667 4.46667,4.66667 z"
         id="text2-12-4-6-2-2-8-1-8"
         transform="rotate(9.9978389)"
         aria-label="&#10;t" /><path
         style="font-size:66.6667px;font-family:'Tovari Sans';-inkscape-font-specification:'Tovari Sans';text-align:center;letter-spacing:2px;text-anchor:middle;fill:#a573ad;fill-opacity:1;stroke-width:2"
         d="m 177.71407,415.5334 c 0.19717,-0.48805 5.34177,0.074 7.29457,0.20231 0,2.93333 -0.26667,5.93334 -0.4,8.86667 -0.0667,2.8 -0.4,6.06667 1.06667,8.60001 0.46667,0.8 1.26667,1.66666 2.13333,2.06666 1.4,0.66667 3,0.93334 4.53334,1.06667 4,0.26667 8.93334,-0.46667 11.46667,-3.93333 0,-0.0667 0,-0.13334 -0.0667,-0.13334 l 9e-5,5e-5 v -0.0667 c -1.73333,-1.20001 -3.33333,-2.73334 -4.4,-4.60001 -0.0667,-0.0667 -0.13333,-0.0667 -0.13333,-0.0667 -1.8,1.26666 -4.13334,2.33333 -6.2,1 -0.86667,-0.53334 -1.20001,-1.46667 -1.26667,-2.46667 -0.0667,-1 0,-2.06667 0,-3.13334 0,-2.06666 0.0667,-4.06667 0.13333,-6.06667 0.0667,-0.46666 0.0667,-0.86666 0.0667,-1.33333 h 0.46667 c 1.73333,-0.0667 3.53333,0.2 5.33333,0.26667 0.0667,0 0.0667,-0.0667 0.13333,-0.13334 0.0667,-1.13333 0.40001,-2.33333 0.73334,-3.46667 0.4,-1.06666 0.86667,-2.2 1.46667,-3.13333 0.0667,-0.0667 0,-0.2 -0.0667,-0.2 -2.8,0 -5.53334,0.0667 -8.26667,0.0667 0,-0.93334 0.0667,-1.8 0.0667,-2.66667 0.0667,-1.33334 -0.0667,-2.66667 -0.0667,-4 l -0.13334,-0.13334 c -0.8,0 -1.6,-0.13333 -2.46666,-0.13333 -1.4,-0.0667 -2.86667,-0.0667 -4.33334,0.2 -0.0667,0 -0.0667,0 -0.0667,0.0667 0,1.8 -0.13333,3.6 -0.13333,5.4 v 1.26667 c -1.60993,-0.0604 -4.49485,-0.0972 -4.99639,-0.22766"
         id="text2-12-4-6-0-6-5-6-3"
         transform="rotate(-9.4335648)"
         aria-label="&#10;t"
         sodipodi:nodetypes="cccccccscccccsscccccccsccccccsscc" /><path
         style="font-size:66.6667px;font-family:'Tovari Sans';-inkscape-font-specification:'Tovari Sans';text-align:center;letter-spacing:2px;text-anchor:middle;fill:#a573ad;fill-opacity:1;stroke:#000000;stroke-width:2"
         d="m 292.99371,382.07663 c 0.2468,-1.78301 0.42752,-3.57515 0.67432,-5.35816 0.44789,-3.23581 0.95272,-6.39645 1.40061,-9.63227 l 0.38391,-2.77355 c 0.009,-0.0661 -0.0478,-0.14122 -0.1138,-0.15036 -2.24526,-0.31078 -5.18951,-0.92022 -7.21931,0.61598 l -0.009,0.0661 c -0.46617,3.36789 -1.00755,6.79268 -1.93595,10.09659 -0.52923,1.87851 -1.19967,3.80477 -2.29581,5.40292 -0.93664,1.4183 -2.30813,2.57451 -3.97528,2.94947 -1.38472,0.27944 -3.11083,0.10782 -4.26499,-0.79225 -2.19452,-1.64981 -1.70093,-5.21581 -1.37187,-7.59315 0.2173,-2.0563 0.5098,-4.16948 0.79316,-6.21663 0.23974,-1.24556 0.47027,-2.42509 0.57794,-3.68894 0.15539,-1.12262 0.24472,-2.2544 0.40011,-3.37703 0.009,-0.0661 -0.0478,-0.14122 -0.1138,-0.15036 -2.45252,-0.27213 -5.03505,-0.0912 -7.48345,0.57942 l -0.009,0.0661 c -0.322,1.83989 -0.5688,3.6229 -0.82474,5.47193 -0.21024,1.51886 -0.56168,3.08547 -0.78106,4.67036 -0.45703,3.30185 -0.6113,6.84752 0.0726,10.17269 0.56804,2.70341 1.95594,5.3184 4.30082,6.85442 2.03297,1.35824 4.92946,1.82646 7.34131,1.41997 2.62823,-0.51113 4.57166,-2.3958 6.01421,-4.55171 -0.20109,1.45282 -0.41133,2.97167 -0.75363,4.47224 -0.39514,2.3682 -1.20825,9.66883 -2.8124,11.53315 -2.07344,2.3378 -5.70137,2.77786 -8.4699,1.38512 -1.62555,-0.89803 -2.87728,-2.55195 -3.80796,-4.09412 0.009,-0.0661 -0.0569,-0.0752 -0.13207,-0.0183 -1.05454,0.32516 -2.15478,0.98049 -3.11382,1.58807 -0.96816,0.67362 -2.01151,1.40413 -2.67692,2.32156 -0.0843,0.12293 -0.30985,0.29363 -0.32813,0.4257 -0.0274,0.19811 0.12498,0.55571 0.23878,0.70608 0.25706,0.57399 0.51412,1.14799 0.84635,1.6651 0.65534,1.10024 1.52707,2.09583 2.49225,2.90246 3.54885,3.0487 8.38989,4.05529 12.86512,3.3287 2.4027,-0.34045 4.68042,-1.23662 6.569,-2.72506 2.35793,-1.96191 3.84414,-4.91939 4.71773,-7.82709 0.95791,-3.03061 1.53231,-11.03731 2.03711,-14.19795 0.25593,-1.84904 0.4458,-3.70722 0.76781,-5.54711 z"
         id="text2-12-4-6-0-5-2-7-6-6"
         aria-label="&#10;y"
         sodipodi:nodetypes="ssssscscccccccscccsscccccccccccscccccccss" /></g></g></svg>
