<?xml version="1.0" encoding="UTF-8" standalone="no"?>
<!-- Created with Inkscape (http://www.inkscape.org/) -->

<svg
   width="393"
   height="371"
   viewBox="0 0 393 371"
   version="1.1"
   id="svg1"
   xml:space="preserve"
   inkscape:version="1.3 (0e150ed, 2023-07-21)"
   sodipodi:docname="icon.svg"
   xmlns:inkscape="http://www.inkscape.org/namespaces/inkscape"
   xmlns:sodipodi="http://sodipodi.sourceforge.net/DTD/sodipodi-0.dtd"
   xmlns="http://www.w3.org/2000/svg"
   xmlns:svg="http://www.w3.org/2000/svg"><sodipodi:namedview
     id="namedview1"
     pagecolor="#ffffff"
     bordercolor="#000000"
     borderopacity="0.25"
     inkscape:showpageshadow="2"
     inkscape:pageopacity="0.0"
     inkscape:pagecheckerboard="0"
     inkscape:deskcolor="#d1d1d1"
     inkscape:document-units="px"
     inkscape:zoom="1.0703125"
     inkscape:cx="174.71533"
     inkscape:cy="180.32117"
     inkscape:window-width="1364"
     inkscape:window-height="748"
     inkscape:window-x="0"
     inkscape:window-y="18"
     inkscape:window-maximized="1"
     inkscape:current-layer="layer1" /><defs
     id="defs1" /><g
     inkscape:label="Layer 1"
     inkscape:groupmode="layer"
     id="layer1"
     transform="translate(-1002.6473,-650.68274)"><path
       d="m 1172.5507,916.67004 c 20.0475,-10.05153 22.4307,-19.94574 8.3941,-34.84954 -24.6494,-26.17233 -15.4909,-43.05394 22.3642,-41.22304 32.2629,1.56058 37.6222,17.10521 14.26,41.36071 -14.3884,14.93852 -12.4015,23.41734 7.7603,33.11474 11.8508,5.69993 17.2862,5.32137 27.0772,-1.88647 18.4851,-13.60788 19.7221,-35.95777 3.3229,-60.03851 -7.5908,-11.14657 -6.1084,-19.21766 3.5296,-19.21766 5.7875,0 15.5244,11.69025 21.0508,25.27397 2.1429,5.26713 2.1429,5.26713 3.9968,0.31112 42.0868,-112.51055 -20.3952,-171.25974 -83.835,-173.05368 -63.472,-1.79487 -127.9028,53.42319 -89.5236,168.85268 4.214,12.67401 4.214,12.67401 5.87,7.9713 3.2831,-9.3224 16.8029,-30.08189 20.5203,-31.50836 13.4952,-5.17855 16.179,6.29154 5.2079,22.25829 -14.5028,21.10677 -14.8523,41.05858 -0.9624,54.9484 10.6399,10.63997 20.2956,13.0366 30.9669,7.68605 z m -24.2005,-85.83254 c 59.3468,-143.69301 59.3468,-143.69301 0,0 z"
       style="fill:#ffff8c;fill-opacity:1;stroke-width:0.916851"
       id="path1-4"
       sodipodi:nodetypes="sssssssssssssssssscc"
       inkscape:export-filename="../../../../../Programacion WEB/TalleNo1/PrototipoHTML/assets/svg/logo.svg"
       inkscape:export-xdpi="96"
       inkscape:export-ydpi="96" /><path
       style="fill:#000000;stroke-width:0.916851"
       d="m 1150.2627,935.46928 c -10.6817,-3.5994 -23.1653,-13.72799 -28.3794,-22.62524 -13.4562,-14.53553 -21.2802,-33.09744 -27.9487,-51.94775 -4.7841,-14.398 -4.7841,-14.398 -6.4701,-7.75906 -6.298,24.79985 -21.6387,37.62606 -31.1272,26.02529 -1.6269,-1.98903 -2.1009,-3.51093 -5.4545,-17.51479 -2.9709,-12.4058 -6.6525,-18.84635 -17.3492,-30.35063 -42.16222,-45.34524 -40.72333,-81.92219 4.0923,-104.02948 18.0612,-8.90939 26.9068,-15.12648 35.8133,-25.17115 11.4793,-12.94619 15.0171,-16.07077 21.8475,-19.29619 12.1003,-5.71393 29.6946,-7.25088 40.2743,-3.51819 57.3882,-39.36337 95.6488,-28.29838 100.4323,-15.60311 -8.6735,-1.41842 -24.9655,-1.50145 -35.1999,5.22805 32.5985,1.22742 57.3385,12.38996 62.4197,10.41861 6.1473,-2.38501 21.3558,-2.52823 29.7977,-0.28062 13.6343,3.62986 18.1499,6.82928 32.534,23.05145 8.7842,9.90674 17.9946,16.44669 34.5467,24.53045 45.9805,22.45601 47.85,58.97133 5.359,104.67018 -10.8355,11.65343 -14.4536,18.05584 -17.4158,30.81816 -2.8864,12.43536 -4.3614,16.13294 -7.4839,18.76029 -10.4589,8.80063 -24.8664,-6.61017 -30.0316,-32.12318 -1.5066,-7.44161 -1.5066,-7.44161 -3.6664,0.43479 -5.1,18.59899 -15.9921,44.25734 -22.2203,52.3436 -1.7477,2.26926 -4.394,6.3714 -5.8806,9.1161 -5.3935,9.95782 -18.1074,21.19512 -29.6521,24.69032 -40.4375,12.2426 -63.9929,11.873 -98.8371,0.1321 z m 22.5224,-19.04567 c 20.0474,-10.05154 22.4306,-19.94574 8.3941,-34.84954 -24.6495,-26.17233 -15.491,-43.05394 22.3641,-41.22304 32.2629,1.56057 37.6223,17.10521 14.26,41.36071 -14.3884,14.93852 -12.4014,23.41734 7.7603,33.11473 11.8509,5.70007 17.2862,5.32137 27.0772,-1.88634 18.4851,-13.608 19.7221,-35.9579 3.3229,-60.03864 -7.5907,-11.14643 -6.1083,-19.21765 3.5297,-19.21765 5.7874,0 15.5243,11.69038 21.0508,25.27397 2.1429,5.26712 2.1429,5.26712 3.9967,0.31111 42.0869,-112.51055 -20.3952,-171.2596 -83.835,-173.05367 -63.472,-1.79487 -127.9028,53.42319 -89.5236,168.85267 4.214,12.67401 4.214,12.67401 5.8701,7.9713 3.283,-9.3224 16.8028,-30.08188 20.5202,-31.50835 13.4952,-5.17856 16.179,6.29166 5.208,22.25842 -14.5029,21.10676 -14.8524,41.05844 -0.9625,54.94839 10.64,10.63997 20.2957,13.03647 30.967,7.68606 z m -24.2005,-85.83255 c 59.3468,-143.693 59.3468,-143.693 0,0 z m -76.5587,6.63512 c 1.4125,-8.25166 4.0927,-20.98546 5.956,-28.29732 2.2454,-8.81144 3.8308,-17.90681 4.7016,-26.97301 3.5014,-36.4538 13.3339,-62.6594 30.5588,-81.44464 2.6587,-2.89953 4.4831,-5.2658 4.0543,-5.25828 -8.6834,0.15087 -18.8986,5.51725 -24.9293,13.09627 -11.5683,14.53804 -25.1366,24.8966 -45.0376,34.38359 -20.4434,9.74558 -25.2897,15.7883 -25.0822,31.27486 0.2063,15.40406 4.6486,23.23188 26.8425,47.29863 9.0498,9.81356 13.2895,16.50543 16.6802,26.32783 2.7821,8.05894 3.219,7.33204 6.2557,-10.40793 z m 266.774,-2.07364 c 1.5502,-2.70946 6.5988,-8.99624 11.219,-13.9706 37.1877,-40.0372 37.3911,-61.34803 0.7535,-78.93885 -19.517,-9.37071 -32.4007,-19.27454 -44.1682,-33.9529 -5.41,-6.7481 -10.0273,-9.69818 -18.1901,-11.62214 -9.6896,-2.28364 -9.937,-2.08182 -4.6015,3.75604 17.3142,18.94456 26.9781,44.65042 30.6232,81.45771 1.0979,11.08691 2.1654,16.41858 5.5071,27.50548 4.362,14.47231 6.1879,22.13567 7.9733,33.46505 1.9189,12.17547 2.433,12.58478 5.4552,4.34355 1.4354,-3.9143 3.8783,-9.33388 5.4285,-12.04334 z"
       id="path3-4"
       sodipodi:nodetypes="ssssssssssccccssssssssssssssssssssssssssssssssssssssssssssssssssssss" /><path
       style="fill:#000000;stroke-width:0.542965"
       d="m 1097.8435,1002.7022 c -0.5755,-2.2094 -0.8742,-15.87442 -0.8962,-29.97702 -0.046,-29.5519 0.9808,-46.8356 12.8605,-51.4109 8.1816,-3.15111 21.5109,-0.27455 43.1828,8.7736 33.571,14.0161 58.6924,14.0705 92.2407,0 18.8009,-7.88527 31.4764,-11.4725 39.9333,-9.77544 12.986,2.60584 16.0246,17.67184 16.0196,48.76924 0.5129,17.8612 1.9774,49.41962 -20.2891,53.15602 -13.0421,1.6305 -25.656,-5.9111 -37.2553,-10.8319 -31.489,-13.36532 -57.9973,-13.26452 -90.1292,0.3431 -20.4503,8.6604 -26.0806,10.8813 -30.839,10.8127 -5.2101,-0.075 -20.5633,-3.4858 -24.8281,-19.8594 z"
       id="path4-9"
       sodipodi:nodetypes="sssssscsssss" /><path
       d="m 1150.8335,1001.2222 c 10.9982,-7.38962 42.4941,-38.39122 3.9568,-62.69972 -12.7908,-8.0681 -28.4938,-7.5056 -39.8091,-4.3687 -8.3974,2.328 -9.8477,65.1352 2.46,73.53732 6.8643,4.6862 16.4578,4.9094 33.3923,-6.4689 z"
       style="fill:#a573ad;fill-opacity:1;stroke-width:0.542965"
       id="path1" /><path
       d="m 1286.3822,1002.2423 c 6.8837,-10.80622 7.4255,-65.77062 -7.5886,-72.09902 -5.3425,-1.914 -13.8293,0.6653 -30.9021,8.5591 -40.8931,18.9076 -20.4431,50.7084 -8.9584,59.2829 12.9031,6.85382 37.7366,19.50352 47.4491,4.25702 z"
       style="fill:#a573ad;fill-opacity:1;stroke-width:0.542965"
       id="path1-0" /><path
       d="m 1218.5197,969.51988 c 0,-20.9042 0,-20.9042 -19.8182,-20.9042 -19.8182,0 -19.8182,0 -19.8182,20.9042 0,20.9041 0,20.9041 19.8182,20.9041 19.8182,0 19.8182,0 19.8182,-20.9041 z"
       style="fill:#a573ad;fill-opacity:1;stroke-width:0.542965"
       id="path1-2" /><path
       d="m 1072.5754,838.7065 c 1.432,-8.44767 4.1493,-21.48387 6.0384,-28.96956 2.2765,-9.02066 3.8838,-18.33211 4.7667,-27.61372 3.5498,-37.31982 13.5186,-64.1479 30.982,-83.37942 2.6955,-2.96843 4.5452,-5.39093 4.1105,-5.38328 -8.8037,0.15457 -19.1604,5.64846 -25.2746,13.40738 -11.7285,14.88347 -25.4846,25.4882 -45.6613,35.20051 -20.7264,9.97696 -25.6398,16.1633 -25.4295,32.01786 0.2092,15.76995 4.713,23.78362 27.2143,48.4223 9.175,10.04653 13.4735,16.89745 16.9112,26.95322 2.8205,8.25047 3.2635,7.50615 6.3423,-10.65529 z"
       style="fill:#ffff8c;fill-opacity:1;stroke-width:0.934079"
       id="path1-3" /><path
       d="m 1325.9239,838.60236 c -1.4573,-8.35501 -4.2224,-21.2484 -6.1448,-28.65199 -2.3166,-8.92192 -3.9522,-18.1312 -4.8506,-27.31105 -3.6124,-36.91077 -13.7568,-63.44477 -31.5278,-82.46562 -2.7429,-2.93583 -4.6253,-5.3318 -4.1829,-5.32414 8.9588,0.15271 19.4979,5.58641 25.7198,13.26033 11.9351,14.72033 25.9336,25.20877 46.4656,34.81469 21.0915,9.86767 26.0915,15.98616 25.8775,31.66688 -0.2129,15.59717 -4.7961,23.52307 -27.6937,47.89156 -9.3366,9.93644 -13.7108,16.71239 -17.209,26.65781 -2.8703,8.16005 -3.3211,7.42391 -6.4541,-10.53847 z"
       style="fill:#ffff8c;fill-opacity:1;stroke-width:0.937091"
       id="path1-3-1" /><path
       d="m 1115.845,787.57474 c -9.8888,-9.88892 2.2903,-29.10711 23.488,-37.06323 27.004,-10.13548 63.0357,9.88233 48.0259,26.68131 -4.979,5.57242 -11.6714,5.79404 -19.1286,0.63371 -10.3736,-7.17868 -21.1117,-4.99218 -31.9036,6.49652 -8.2405,8.77251 -14.04,9.6933 -20.4817,3.25169 z"
       style="fill:#000000;stroke-width:1.31995"
       id="path1-49-21" /><path
       d="m 1284.4521,787.19908 c 9.8888,-9.88892 -2.2903,-29.1071 -23.488,-37.06322 -27.004,-10.13549 -63.0357,9.88232 -48.0258,26.6813 4.9789,5.57243 11.6713,5.79405 19.1285,0.63371 10.3737,-7.17867 21.1117,-4.99218 31.9036,6.49652 8.2406,8.77251 14.0401,9.6933 20.4817,3.25169 z"
       style="fill:#000000;stroke-width:1.31995"
       id="path1-49-2-6" /></g></svg>
